# xmcd
#
# Track frame offsets:
#	150
#	2742
#	12591
#	20940
#	27242
#	43642
#	51590
#	67022
#	88276
#	93241
#	158099
#	199626
#	277796
#	313963
# Disc length: 4208 seconds
# Revision: 1
# Processed by: cddbd v1.5.2PL0 Copyright (c) Steve Scherf et al.
#
# Submitted via: libkcddb 0.31
#
DISCID=c1106e0e
DTITLE=Ernest Ansermet - Hugues Cuenod - Jean Vilar - Le diable boiteux (Jean Françaix) - Oedipus Rex (Igor Stravinsky)
DYEAR=2002
DGENRE=Opera
TTITLE0=Applaudissements
TTITLE1=Hugues Cuenod - André Vessières - Orchestre National - Ernest Ansermet - Jean Françaix - Le diable boiteux (1937) - C'est la nuit à Madrid
TTITLE2=Hugues Cuenod - André Vessières - Orchestre National - Ernest Ansermet - Jean Françaix - Le diable boiteux (1937) - Oh ! à moi, à moi, à moi
TTITLE3=Hugues Cuenod - André Vessières - Orchestre National - Ernest Ansermet - Jean Françaix - Le diable boiteux (1937) - Un petit corps
TTITLE4=Hugues Cuenod - André Vessières - Orchestre National - Ernest Ansermet - Jean Françaix - Le diable boiteux (1937) - Nos deux voyageurs
TTITLE5=Hugues Cuenod - André Vessières - Orchestre National - Ernest Ansermet - Jean Françaix - Le diable boiteux (1937) - Quel homme est en cette prison désolée
TTITLE6=Hugues Cuenod - André Vessières - Orchestre National - Ernest Ansermet - Jean Françaix - Le diable boiteux (1937) - Oh ! le ravissant concert
TTITLE7=Hugues Cuenod - André Vessières - Orchestre National - Ernest Ansermet - Jean Françaix - Le diable boiteux (1937) - Le ciel se remplit de femmes
TTITLE8=Jean Vilar - Marie-Thérèse Hollet - Joseph Peyron - Lucien Lovano - Louis Rialland - André Vessières - Choeur de la RTF - Orchestre National - Ernest Ansermet - Igor Stravinsky - Oedipus Rex (1927) - Prologue
TTITLE9=Jean Vilar - Marie-Thérèse Hollet - Joseph Peyron - Lucien Lovano - Louis Rialland - André Vessières - Choeur de la RTF - Orchestre National - Ernest Ansermet - Igor Stravinsky - Oedipus Rex (1927) - Acte I
TTITLE10=Jean Vilar - Marie-Thérèse Hollet - Joseph Peyron - Lucien Lovano - Louis Rialland - André Vessières - Choeur de la RTF - Orchestre National - Ernest Ansermet - Igor Stravinsky - Oedipus Rex (1927) - Oedipe interroge la fontaine des vérités
TTITLE11=Jean Vilar - Marie-Thérèse Hollet - Joseph Peyron - Lucien Lovano - Louis Rialland - André Vessières - Choeur de la RTF - Orchestre National - Ernest Ansermet - Igor Stravinsky - Oedipus Rex (1927) - Acte II
TTITLE12=Jean Vilar - Marie-Thérèse Hollet - Joseph Peyron - Lucien Lovano - Louis Rialland - André Vessières - Choeur de la RTF - Orchestre National - Ernest Ansermet - Igor Stravinsky - Oedipus Rex (1927) - Et maintenant vous allez entendre le monologue
TTITLE12=illustre
TTITLE13=Désannonce
EXTD=Le diable boiteux opéra comique de chambre (livret Jean Françaix d'après le roman d'Alain-René Lesage) - Oedipus Rex, opéra-oratorio (texte Jean Cocteau d'après Sophocle, mis en latin par Jean Daniélou)
EXTT0=
EXTT1=
EXTT2=
EXTT3=
EXTT4=
EXTT5=
EXTT6=
EXTT7=
EXTT8=
EXTT9=
EXTT10=
EXTT11=
EXTT12=
EXTT13=
PLAYORDER=
